<?xml version="1.0" encoding="UTF-8"?>
<!-- Generated by Pixelmator Pro 3.8 -->
<svg width="1024" height="1024" viewBox="0 0 1024 1024" xmlns="http://www.w3.org/2000/svg">
    <g id="Group">
        <path id="Rounded-Rectangle" fill="#ffffff" fill-rule="evenodd" stroke="none" d="M 262.000305 679.3927 C 262 679.19635 262 678.964233 262 678.5 L 262 345.833313 C 262 345.36908 262 345.136963 262.000305 344.940613 C 262.216705 207.728516 373.395203 96.549988 510.6073 96.333618 C 510.80365 96.333313 511.035767 96.333313 511.5 96.333313 C 511.964233 96.333313 512.19635 96.333313 512.3927 96.333618 C 649.604858 96.550049 760.783325 207.728516 760.999695 344.940613 C 761 345.136963 761 345.36908 761 345.833313 L 761 678.5 C 761 678.964233 761 679.19635 760.999695 679.3927 C 760.783325 816.604797 649.604858 927.783325 512.3927 927.999695 C 512.19635 928 511.964233 928 511.5 928 C 511.035767 928 510.80365 928 510.6073 927.999695 C 373.395203 927.783325 262.216705 816.604797 262.000305 679.3927 Z M 512 463 C 485.490326 463 464 441.509644 464 415 L 464 289 C 464 262.490356 485.490326 241 512 241 C 538.509644 241 560 262.490356 560 289 L 560 415 C 560 441.509644 538.509644 463 512 463 Z"/>
    </g>
</svg>
